<?xml version="1.0" encoding="UTF-8"?>
<svg id="Camada_2" xmlns="http://www.w3.org/2000/svg" viewBox="0 0 33.12 31.88">
  <defs>
    <style>
      .cls-1 {
        fill: #aeaeb1;
      }

      .cls-2 {
        fill: #fff;
      }

      .cls-3 {
        fill: #bebec1;
      }
    </style>
  </defs>
  <g id="Camada_1-2" data-name="Camada_1">
    <g>
      <path class="cls-3" d="M5.08,7.82l-.24.63-.25.63-.49,1.25c-.16.42-.32.84-.46,1.26-.07.21-.14.42-.2.64-.06.22-.11.43-.13.66-.02-.45.09-.9.2-1.34.12-.44.27-.86.43-1.28.16-.42.34-.84.53-1.24.19-.41.39-.81.62-1.2"/>
      <path class="cls-3" d="M5.03,22.54c-.39-.66-.71-1.35-.99-2.06-.28-.71-.51-1.44-.67-2.19-.17-.75-.26-1.51-.3-2.27-.02-.38-.04-.76-.04-1.15,0-.38.02-.77.04-1.14l.04-.05,1.04-.27.52-.14c.17-.05.34-.1.51-.16-.33.14-.67.25-1.01.36-.34.11-.68.21-1.03.31l.04-.05c-.01.76,0,1.52.05,2.28.03.38.06.76.12,1.13.05.38.11.75.19,1.12.16.74.37,1.47.62,2.19.26.71.55,1.42.89,2.1"/>
      <path class="cls-3" d="M12.53,28.65c-.73-.24-1.43-.55-2.11-.92-.68-.36-1.32-.79-1.93-1.26-.62-.46-1.19-.98-1.73-1.52-.27-.27-.53-.56-.77-.86-.24-.3-.48-.61-.67-.95l.02-.06,1.49-.88c.5-.3.99-.59,1.48-.9-.48.32-.97.63-1.46.94l-1.47.91.02-.06c.4.64.94,1.19,1.47,1.74.54.54,1.12,1.03,1.72,1.5.6.47,1.24.89,1.89,1.28.66.39,1.34.73,2.05,1.03"/>
      <path class="cls-3" d="M6.38,6.18l-.2.76c-.07.25-.13.5-.19.76-.12.51-.22,1.02-.27,1.53-.06.51-.05,1.03-.02,1.55.01.26.03.52.06.78.02.26.04.52.05.78-.1-.52-.19-1.03-.24-1.55-.06-.52-.07-1.05-.02-1.58.06-.53.17-1.04.32-1.55.15-.5.32-1,.52-1.48"/>
      <path class="cls-3" d="M8.72,20.29c-.39-.53-.73-1.1-1.04-1.68-.31-.58-.59-1.18-.82-1.8-.24-.62-.44-1.25-.62-1.88-.17-.64-.31-1.29-.39-1.95l.05-.08,1.77-.51c.59-.17,1.18-.33,1.77-.51-.57.22-1.16.42-1.74.61-.59.19-1.17.38-1.76.56l.05-.08c.09.64.24,1.29.41,1.92.17.63.36,1.26.59,1.88.23.61.48,1.22.77,1.81.29.59.6,1.17.95,1.73"/>
      <path class="cls-3" d="M13.87,26.26c-.49-.35-.96-.74-1.4-1.14-.45-.4-.87-.84-1.28-1.29-.41-.45-.78-.92-1.14-1.41-.36-.49-.68-1-.95-1.55l.02-.06,1.54-.94,1.54-.95c-.5.34-1,.67-1.51.99-.51.33-1.01.65-1.52.97l.02-.06c.29.52.64,1.01,1,1.49.36.48.74.94,1.14,1.39.39.45.81.88,1.24,1.31.43.42.87.83,1.32,1.23"/>
      <path class="cls-3" d="M17.15,29.46c-.34.03-.68.04-1.02.03-.34,0-.68-.04-1.02-.09-.34-.04-.67-.11-1-.19-.33-.08-.65-.19-.97-.32l-.02-.06c.13-.25.27-.5.4-.75.14-.25.28-.5.43-.73-.14.25-.27.5-.39.76-.12.26-.25.51-.37.77l-.02-.06c.32.1.65.17.97.24.33.07.66.13.99.18.33.05.66.09,1,.13.33.03.67.07,1.01.1"/>
      <path class="cls-3" d="M18.29,29.16c-.35-.15-.7-.32-1.04-.5-.34-.17-.68-.36-1.01-.55-.33-.19-.66-.4-.97-.61-.31-.22-.63-.44-.9-.72v-.06c.26-.41.54-.82.83-1.21.3-.39.6-.78.96-1.11-.17.17-.33.36-.48.55-.15.19-.29.39-.43.59-.28.4-.55.81-.8,1.23v-.07c.13.12.29.23.44.34.15.11.31.22.47.32.32.21.64.41.97.61l.98.59c.33.2.65.39.98.6"/>
      <path class="cls-3" d="M10,11c-.11-.38-.21-.77-.29-1.15-.09-.39-.18-.77-.25-1.16-.08-.39-.14-.78-.2-1.18-.05-.4-.1-.79-.1-1.2l.07-.07c.45-.07.91-.15,1.35-.25.45-.1.9-.21,1.33-.38-.2.11-.42.19-.64.27s-.44.15-.66.21c-.45.12-.9.23-1.35.31l.07-.07c0,.38.06.78.11,1.17.05.39.11.78.18,1.17l.2,1.17c.07.39.14.78.2,1.17"/>
      <path class="cls-3" d="M12.52,17.94c-.27-.49-.53-.98-.77-1.48-.24-.51-.47-1.01-.68-1.53-.21-.52-.4-1.04-.57-1.58-.17-.53-.31-1.07-.39-1.64l.05-.08.98-.39c.33-.13.65-.26.98-.39l.97-.41c.32-.14.64-.28.95-.46-.29.2-.61.36-.92.52-.31.16-.64.31-.95.45-.32.15-.64.29-.97.42l-.98.4.05-.08c.08.54.24,1.08.4,1.61.16.53.35,1.06.54,1.58.2.52.4,1.04.63,1.55.22.51.45,1.02.68,1.52"/>
      <path class="cls-3" d="M16.2,23.34c-.36-.33-.7-.69-1.02-1.06-.32-.37-.62-.75-.91-1.15-.14-.2-.28-.4-.42-.6-.13-.21-.26-.41-.39-.62-.25-.42-.49-.85-.69-1.3l.02-.07,2.03-1.22,1.01-.61c.33-.21.67-.41,1-.63-.64.46-1.31.88-1.97,1.3-.66.43-1.33.84-2,1.26l.02-.07c.22.43.47.85.72,1.26.13.21.26.41.4.61.13.2.27.41.41.61.28.4.57.79.87,1.17.3.38.61.76.93,1.13"/>
      <path class="cls-3" d="M19.7,27.05c-.29-.21-.57-.45-.84-.7-.13-.12-.26-.25-.4-.38l-.38-.39c-.25-.27-.5-.53-.73-.81-.24-.28-.48-.55-.7-.84v-.09c.43-.42.87-.81,1.34-1.18.47-.36.95-.71,1.49-.97-.51.29-.99.65-1.43,1.03-.45.38-.88.79-1.29,1.21v-.09s.72.82.72.82l.72.81.74.8c.25.26.5.52.76.78"/>
      <path class="cls-3" d="M14.37,9.05c-.34-.6-.66-1.21-.98-1.83-.31-.61-.62-1.23-.92-1.85l.03-.11c.43-.31.85-.64,1.26-.97.21-.17.4-.35.6-.53.19-.18.38-.38.52-.6-.11.25-.29.45-.47.65-.18.2-.37.39-.57.57-.4.36-.81.7-1.25,1.02l.03-.11c.31.62.61,1.24.9,1.86.29.63.58,1.25.85,1.89"/>
      <path class="cls-3" d="M17.25,15.05c-.26-.42-.5-.86-.73-1.3-.24-.44-.46-.88-.68-1.32-.23-.44-.44-.89-.65-1.34-.21-.45-.42-.9-.62-1.35l.02-.07c.71-.44,1.42-.88,2.13-1.33.35-.23.7-.46,1.05-.69.34-.24.69-.47,1-.76-.14.15-.31.28-.47.41-.17.13-.33.25-.5.38-.34.24-.69.48-1.03.72-.69.47-1.4.93-2.11,1.37l.02-.07c.23.44.45.88.67,1.33.22.45.44.89.65,1.34.21.45.43.89.64,1.34l.62,1.35Z"/>
      <path class="cls-3" d="M19.87,20.66c-.22-.4-.43-.81-.63-1.22-.21-.41-.41-.82-.6-1.23-.2-.41-.4-.82-.58-1.24-.19-.41-.38-.83-.56-1.25l.02-.08,2.54-1.55c.85-.51,1.69-1.03,2.53-1.56-.82.56-1.66,1.09-2.49,1.62-.84.53-1.68,1.06-2.52,1.59l.02-.08c.21.41.4.82.6,1.23.2.41.39.82.58,1.24.19.41.38.83.56,1.25.18.42.36.84.53,1.26"/>
      <path class="cls-3" d="M22.09,25.3c-.2-.31-.38-.63-.54-.96-.17-.33-.33-.65-.48-.99-.15-.33-.31-.67-.45-1l-.42-1.01.04-.1c.71-.35,1.44-.65,2.18-.92.37-.14.75-.26,1.13-.36.38-.1.77-.18,1.16-.2-.39.04-.77.14-1.15.26-.38.12-.74.25-1.11.39-.73.28-1.44.62-2.15.96l.04-.1.44,1,.43,1.01.43,1.01c.15.33.29.67.45,1"/>
      <path class="cls-3" d="M18.88,5.96c-.29-.29-.61-.55-.92-.82-.31-.27-.61-.55-.92-.82l-.9-.84c-.3-.28-.6-.56-.89-.85v-.08c.11-.22.23-.44.35-.67.06-.11.12-.22.18-.34.06-.11.11-.23.16-.35-.06.25-.17.48-.26.72-.1.23-.21.46-.32.69v-.08c.3.27.6.54.91.82.3.28.6.56.9.84.3.28.59.57.88.86.14.15.29.29.43.44.14.15.29.29.41.46"/>
      <path class="cls-3" d="M22.96,11.54c-.26-.45-.53-.89-.81-1.33-.28-.43-.57-.87-.87-1.29-.3-.42-.61-.84-.93-1.25-.16-.21-.32-.41-.49-.61-.16-.2-.33-.4-.5-.59v-.08c.4-.39.8-.79,1.2-1.19.2-.2.39-.4.58-.61.19-.21.38-.41.56-.63-.33.46-.72.87-1.1,1.29-.38.42-.77.82-1.17,1.22v-.08c.18.19.36.38.53.58.17.2.34.4.5.6.33.4.64.82.93,1.26.3.43.58.87.83,1.32.26.45.5.91.71,1.39"/>
      <path class="cls-3" d="M25.33,19c-.2-1.17-.48-2.32-.81-3.45-.17-.56-.36-1.12-.56-1.68-.1-.28-.21-.55-.32-.83-.11-.27-.23-.55-.35-.81l.02-.07,1.63-.99.81-.51c.27-.17.54-.34.8-.53-.25.2-.51.38-.78.55l-.8.53c-.53.35-1.07.69-1.61,1.03l.02-.07c.28.53.52,1.07.73,1.63.22.55.41,1.12.57,1.69.33,1.14.56,2.32.66,3.5"/>
      <path class="cls-3" d="M28.48,19.36c-.5.02-1,.09-1.49.15-.25.03-.5.07-.74.11l-.74.12.06-.09c.06.41.13.81.18,1.22.05.41.07.83.08,1.24.02.41.02.83.01,1.24,0,.41-.01.82-.03,1.24l-.02-.02c.48.05.96.1,1.44.17-.24-.03-.48-.05-.72-.07l-.72-.06-.02-.02-.04-1.23-.05-1.23c-.02-.41-.05-.82-.1-1.22-.04-.41-.11-.81-.16-1.22l.07-.09c.25-.04.5-.08.75-.1.25-.03.5-.05.75-.08s.5-.04.75-.05c.25,0,.5-.01.75,0"/>
      <path class="cls-3" d="M21.64,2.97c-.23-.16-.48-.28-.73-.41l-.74-.4c-.49-.27-.98-.53-1.45-.84.53.19,1.04.43,1.53.69.24.14.49.28.72.43.23.16.47.32.66.53"/>
      <path class="cls-3" d="M26.85,9.26c-.32-.54-.65-1.08-1-1.6-.35-.52-.72-1.03-1.11-1.52-.39-.49-.79-.97-1.22-1.43-.21-.23-.43-.46-.66-.67l-.34-.32-.18-.16-.09-.08-.04-.04-.02-.02h-.01s0-.01,0-.01h0s.03-.06.02-.03h0s-.02,0-.02,0c.15-.16.29-.32.44-.48.07-.08.14-.17.2-.26.06-.09.13-.18.16-.28-.03.1-.1.2-.16.29-.06.09-.13.18-.2.26-.13.17-.28.34-.42.5h-.02s0,0,0,0c0,.03.03-.03.02-.03h0s0,0,0,0h.01s.02.03.02.03l.05.04.1.07.19.14c.12.1.25.2.36.3.24.21.47.42.69.64.44.45.86.92,1.25,1.42.38.5.75,1.02,1.08,1.56.33.54.63,1.09.9,1.67"/>
      <path class="cls-3" d="M29.48,8.38c-.38.26-.76.5-1.14.75l-1.15.74.02-.08c.4.66.68,1.38.94,2.1.26.72.46,1.46.62,2.21.16.75.28,1.5.35,2.26.08.76.11,1.52.1,2.29h-.02s.91,0,.91,0h.45c.15.02.31.02.45.05-.15-.03-.3-.02-.45-.03h-.45s-.91,0-.91,0v-.02c-.03-.38-.06-.76-.09-1.14-.03-.38-.07-.76-.12-1.13-.1-.75-.22-1.5-.39-2.24-.08-.37-.18-.74-.28-1.1-.1-.37-.21-.73-.33-1.09-.25-.72-.53-1.42-.89-2.08l.02-.09,1.17-.7,1.18-.69Z"/>
      <path class="cls-3" d="M29.14,19.26c.04.42.01.85-.02,1.27-.04.42-.11.84-.2,1.26-.09.41-.2.83-.33,1.23-.07.2-.14.4-.21.6-.08.2-.16.39-.25.59l.16-.61c.06-.2.11-.41.16-.61.1-.41.2-.82.29-1.23.09-.41.16-.82.23-1.24.03-.21.06-.41.09-.62.03-.21.05-.42.07-.63"/>
      <path class="cls-3" d="M19.06,29.35c.3-.74.77-1.41,1.32-1.99.55-.58,1.22-1.07,1.94-1.42.73-.35,1.52-.56,2.32-.63.4-.03.8-.04,1.2-.01.4.03.8.09,1.19.17-.79-.1-1.59-.12-2.37-.03-.78.1-1.55.3-2.26.65-.71.33-1.36.81-1.92,1.36-.28.28-.54.58-.78.89-.24.32-.46.65-.64,1"/>
      <path class="cls-3" d="M15.04,1.32c-.76.16-1.5.35-2.23.59-.73.25-1.44.53-2.13.88-.68.35-1.35.74-1.97,1.19-.61.46-1.21.95-1.71,1.53v-.04h.03s.03.02.05.03c.03.01.07.02.11.03.07.02.15.03.22.04.15.02.3.03.45.04.3.02.6.03.9.04-.3,0-.6.01-.9,0-.15,0-.3-.01-.45-.03-.08,0-.15-.02-.23-.03-.04,0-.08-.02-.11-.03-.02,0-.04-.01-.06-.02h-.03s-.02-.02-.04-.05v-.04c.24-.31.51-.59.79-.86.28-.27.58-.52.89-.75.62-.46,1.28-.88,1.98-1.22.7-.34,1.42-.63,2.17-.85.74-.22,1.5-.38,2.27-.47"/>
      <path class="cls-2" d="M8.54,29.61c-.26.28-.52.56-.76.85-.12.14-.24.29-.35.44-.11.15-.21.31-.28.46-.03.07-.04.16-.03.17,0,0,0,0,.02,0,.02,0,.05.01.09.01.15,0,.33-.04.5-.1.35-.11.69-.26,1.04-.41.69-.31,1.36-.65,2.03-1.01.67-.36,1.33-.72,1.99-1.09,1.31-.75,2.63-1.51,3.92-2.3,1.3-.78,2.59-1.57,3.87-2.39,1.29-.8,2.56-1.63,3.82-2.47,1.27-.83,2.51-1.7,3.73-2.58.61-.44,1.21-.9,1.8-1.37.59-.47,1.17-.95,1.7-1.47.27-.26.53-.53.75-.82.11-.14.22-.29.3-.45.08-.15.15-.32.16-.47.01-.16-.05-.3-.18-.4-.13-.1-.31-.16-.48-.21-.36-.09-.74-.1-1.12-.1.38-.05.76-.08,1.15-.04.19.03.39.07.58.18.09.06.18.14.24.24.06.1.09.22.1.33,0,.23-.06.43-.13.62-.08.19-.18.36-.29.53-.22.33-.46.64-.71.93-1.03,1.15-2.2,2.16-3.39,3.12-.3.24-.6.48-.9.71-.3.23-.61.46-.92.69-.61.45-1.23.9-1.86,1.34-1.25.87-2.53,1.71-3.82,2.53-1.3.81-2.6,1.6-3.92,2.36-1.33.75-2.66,1.49-4.03,2.17-1.37.69-2.75,1.34-4.2,1.87-.36.13-.73.25-1.12.33-.2.04-.39.08-.62.06-.06,0-.12-.02-.19-.05-.07-.03-.15-.1-.17-.19-.03-.09-.01-.16,0-.22.02-.06.04-.11.06-.16.1-.19.23-.34.36-.48.13-.15.27-.28.41-.41.28-.26.57-.51.87-.75"/>
      <path class="cls-1" d="M2.01,11.61c-.22.33-.44.67-.64,1.01-.21.34-.4.69-.57,1.04-.16.35-.32.72-.38,1.08-.03.18-.02.36.03.48.06.12.16.2.3.24.15.04.33.05.51.04.18-.01.37-.04.55-.08.37-.08.74-.2,1.11-.33.74-.26,1.46-.57,2.18-.91,1.43-.68,2.84-1.42,4.22-2.21,1.39-.78,2.76-1.59,4.11-2.43,1.36-.83,2.7-1.69,4.03-2.57,1.33-.87,2.64-1.78,3.93-2.71.64-.47,1.27-.95,1.89-1.45.61-.5,1.22-1.01,1.72-1.59.12-.15.24-.29.32-.45.04-.07.07-.15.08-.21,0-.07,0-.09-.02-.12-.02-.03-.09-.07-.17-.09-.08-.02-.17-.03-.26-.03-.19,0-.38,0-.58.03-.39.04-.78.12-1.17.21-.39.08-.78.18-1.17.29.74-.3,1.49-.58,2.29-.76.2-.04.4-.08.62-.08.11,0,.22,0,.33.02.11.02.25.05.36.16.06.05.11.13.13.21.02.08.03.15.02.22-.01.14-.05.25-.1.36-.09.21-.21.39-.33.56-.25.34-.52.64-.81.93-.28.29-.58.57-.87.85-.59.55-1.22,1.06-1.84,1.57-.63.51-1.26,1-1.91,1.47-.65.48-1.3.94-1.96,1.4-1.32.91-2.67,1.78-4.04,2.63-2.75,1.66-5.55,3.25-8.53,4.5-.75.31-1.5.6-2.29.82-.39.11-.79.21-1.21.27-.21.03-.42.05-.64.05-.22,0-.44-.02-.68-.11-.11-.04-.23-.11-.33-.2-.1-.09-.18-.22-.22-.34-.08-.25-.05-.49,0-.7.11-.42.3-.79.51-1.14.42-.69.93-1.32,1.45-1.93"/>
      <path class="cls-1" d="M2.25,21.24c-.25.38-.5.76-.73,1.15-.23.39-.45.79-.61,1.2-.08.21-.15.42-.18.62-.03.2-.01.41.08.52.09.12.27.17.46.19.2.01.41-.01.62-.05.42-.08.85-.21,1.27-.35.42-.15.83-.32,1.24-.5.82-.36,1.63-.75,2.43-1.17,1.6-.84,3.17-1.72,4.73-2.64,1.56-.92,3.1-1.86,4.62-2.84,1.53-.96,3.04-1.95,4.54-2.97,1.5-1,2.98-2.05,4.44-3.11.73-.53,1.45-1.08,2.15-1.64.71-.56,1.4-1.14,2.04-1.76.32-.31.63-.64.85-.99.06-.09.1-.18.13-.27.03-.09.03-.16,0-.2-.02-.04-.08-.09-.17-.11-.09-.03-.19-.04-.3-.04-.43-.01-.88.07-1.32.16-.44.09-.88.21-1.32.32.42-.17.85-.33,1.28-.46.44-.13.88-.26,1.36-.29.12,0,.24,0,.38.02.06.01.13.04.2.07.07.04.13.1.18.17.05.08.07.16.07.24,0,.08,0,.15-.02.22-.03.13-.08.25-.14.36-.23.43-.53.79-.84,1.13-1.25,1.36-2.65,2.53-4.08,3.67-.71.57-1.44,1.12-2.17,1.66-.73.54-1.47,1.07-2.21,1.6-1.49,1.04-3.01,2.05-4.54,3.03-3.08,1.93-6.23,3.78-9.53,5.34-.83.38-1.66.76-2.53,1.08-.43.16-.87.31-1.31.44-.44.13-.9.24-1.37.3-.24.02-.48.03-.73,0-.13-.02-.26-.05-.39-.11-.13-.06-.25-.16-.34-.29-.09-.13-.12-.27-.13-.41,0-.14.01-.26.04-.38.05-.24.15-.46.25-.67.43-.83.99-1.54,1.58-2.24"/>
    </g>
  </g>
</svg>